<svg id="flag-icons-be" xmlns="http://www.w3.org/2000/svg" viewBox="0 0 380 250"><defs><style>.cls-1{fill:#74acdf;}.cls-2{fill:#fff;}.cls-3,.cls-4,.cls-5,.cls-7{fill:#f6b40e;stroke:#85340a;}.cls-3{stroke-miterlimit:4.1;stroke-width:1.13px;}.cls-4{stroke-miterlimit:4.1;stroke-width:1.13px;}.cls-5{stroke-miterlimit:4.1;stroke-width:1.13px;}.cls-6{fill:#85340a;}.cls-7{stroke-width:1.5px;}.cls-8{fill:#843511;}</style></defs><path class="cls-1" d="M0,0H380V250H0Z"/><path class="cls-2" d="M0,83.55H380v83H0Z"/><g id="ar-c"><path id="ar-a" class="cls-3" d="M188.41,125.65l14.18,30.85s.25.59.65.44.14-.79.14-.79L191.59,124.3m-.35,12c-.2,4.68,2.69,7.27,2.34,11.45s1.89,6.57,2.49,8.21-.6,2.59-.15,2.83,1.49-1,1.2-3.38-2.09-3-1.7-8.11-2.09-6.32-1.49-11"/><path id="ar-a-2" data-name="ar-a" class="cls-4" d="M188.28,125l1.3,33.93s0,.64.42.66.45-.68.45-.68L191.74,125m-4.93,11c-2,4.24-.3,7.74-2.22,11.46s-.77,6.8-.84,8.54-1.55,2.16-1.23,2.56,1.78-.39,2.4-2.66-.79-3.56,1.54-8.14.49-6.64,2.81-10.69"/><path id="ar-a-3" data-name="ar-a" class="cls-5" d="M188.42,124.33l-11.79,31.84s-.25.6.14.78.67-.46.67-.46l14.18-30.86m-8.76,8.27c-3.45,3.17-3.24,7-6.44,9.75s-3.31,6-4,7.56-2.25,1.41-2.11,1.9,1.8.32,3.24-1.55.63-3.59,4.54-6.93,3-5.94,6.68-8.79"/><path id="ar-a-4" data-name="ar-a" class="cls-4" d="M188.79,123.78l-23.07,24.9s-.46.46-.17.77.8-.16.8-.16l24.9-23.09M180,130.49c-4.4,1.61-5.69,5.26-9.68,6.54s-5.35,4.26-6.64,5.44-2.61.44-2.67.95,1.53,1,3.58-.19,2-3.08,6.85-4.67,5-4.35,9.54-5.57"/><path id="ar-b" class="cls-6" d="M192.14,137.14c.25,4.48,2.79,6.47,2.29,10.6,1.09-3.24-1.54-5.77-1.39-10.55m-3.84-11.84,9.71,21.19L190.8,124.7"/><path id="ar-b-2" data-name="ar-b" class="cls-6" d="M187.33,137c-1.48,4.23.1,7-1.94,10.66,2.25-2.57.78-5.92,2.75-10.28m1-12.4.85,23.29.87-23.28"/><path id="ar-b-3" data-name="ar-b" class="cls-6" d="M182.93,135.1c-3,3.34-2.61,6.54-5.88,9.11,3.06-1.51,3-5.17,6.48-8.44m5.66-11.09-8.13,21.85,9.71-21.18"/><path id="ar-b-4" data-name="ar-b" class="cls-6" d="M179.6,131.62c-4,1.95-4.91,5-8.91,6.17,3.4-.22,4.74-3.63,9.21-5.32m9.47-8.07L173.5,141.47l17.08-15.85"/></g><g id="ar-c-2" data-name="ar-c"><path id="ar-a-5" data-name="ar-a" class="cls-3" d="M189.35,123.41,158.5,137.59s-.59.25-.44.65.79.14.79.14l31.85-11.79m-12-.35c-4.68-.2-7.27,2.69-11.45,2.34s-6.57,1.89-8.21,2.49-2.59-.6-2.83-.15,1,1.49,3.38,1.2,3-2.09,8.11-1.7,6.32-2.09,11-1.49"/><path id="ar-a-6" data-name="ar-a" class="cls-4" d="M190,123.28l-33.93,1.3s-.64,0-.66.42.68.45.68.45L190,126.74m-11-4.93c-4.24-2-7.74-.3-11.46-2.22s-6.8-.77-8.54-.84-2.16-1.55-2.56-1.23.39,1.78,2.66,2.4,3.56-.79,8.14,1.54,6.64.49,10.69,2.81"/><path id="ar-a-7" data-name="ar-a" class="cls-5" d="M190.67,123.42l-31.84-11.79s-.6-.25-.78.14.46.67.46.67l30.86,14.18m-8.27-8.76c-3.17-3.45-7-3.24-9.75-6.44s-6-3.31-7.56-4-1.41-2.25-1.9-2.11-.32,1.8,1.55,3.24,3.59.63,6.93,4.54,5.94,3,8.79,6.68"/><path id="ar-a-8" data-name="ar-a" class="cls-4" d="M191.22,123.79l-24.9-23.07s-.46-.46-.77-.17.16.8.16.8l23.09,24.9M184.51,115c-1.61-4.4-5.26-5.69-6.54-9.68s-4.26-5.35-5.44-6.64-.44-2.61-.95-2.67-1,1.53.19,3.58,3.08,2,4.67,6.85,4.35,5,5.57,9.54"/><path id="ar-b-5" data-name="ar-b" class="cls-6" d="M177.86,127.14c-4.48.25-6.47,2.79-10.6,2.29,3.24,1.09,5.77-1.54,10.55-1.39m11.84-3.84-21.19,9.71,21.84-8.11"/><path id="ar-b-6" data-name="ar-b" class="cls-6" d="M178,122.33c-4.23-1.48-7,.1-10.66-1.94,2.57,2.25,5.92.78,10.28,2.75m12.4,1-23.29.85,23.28.87"/><path id="ar-b-7" data-name="ar-b" class="cls-6" d="M179.9,117.93c-3.34-3-6.54-2.61-9.11-5.88,1.51,3.06,5.17,3,8.44,6.48m11.09,5.66-21.85-8.13,21.18,9.71"/><path id="ar-b-8" data-name="ar-b" class="cls-6" d="M183.38,114.6c-1.95-4-5-4.91-6.17-8.91.22,3.4,3.63,4.74,5.32,9.21m8.07,9.47L173.53,108.5l15.85,17.08"/></g><g id="ar-c-3" data-name="ar-c"><path id="ar-a-9" data-name="ar-a" class="cls-3" d="M191.59,124.35,177.41,93.5s-.25-.59-.65-.44-.14.79-.14.79l11.79,31.85m.35-12c.2-4.68-2.69-7.27-2.34-11.45s-1.89-6.57-2.49-8.21.6-2.59.15-2.83-1.49,1-1.2,3.38,2.09,3,1.7,8.11,2.09,6.32,1.49,11"/><path id="ar-a-10" data-name="ar-a" class="cls-4" d="M191.72,125l-1.3-33.93s0-.64-.42-.66-.45.68-.45.68L188.26,125m4.93-11c2-4.24.3-7.74,2.22-11.46s.77-6.8.84-8.54,1.55-2.16,1.23-2.56-1.78.39-2.4,2.66.79,3.56-1.54,8.14-.49,6.64-2.81,10.69"/><path id="ar-a-11" data-name="ar-a" class="cls-5" d="M191.58,125.67l11.79-31.84s.25-.6-.14-.78-.67.46-.67.46l-14.18,30.86m8.76-8.27c3.45-3.17,3.24-7,6.44-9.75s3.31-6,4-7.56,2.25-1.41,2.11-1.9-1.8-.32-3.24,1.55-.63,3.59-4.54,6.93-3,5.94-6.68,8.79"/><path id="ar-a-12" data-name="ar-a" class="cls-4" d="M191.21,126.22l23.07-24.9s.46-.46.17-.77-.8.16-.8.16l-24.9,23.09M200,119.51c4.4-1.61,5.69-5.26,9.68-6.54s5.35-4.26,6.64-5.44,2.61-.44,2.67-1-1.53-1-3.58.19-2,3.08-6.85,4.67-5,4.35-9.54,5.57"/><path id="ar-b-9" data-name="ar-b" class="cls-6" d="M187.86,112.86c-.25-4.48-2.79-6.47-2.29-10.6-1.09,3.24,1.54,5.77,1.39,10.55m3.84,11.84-9.71-21.19,8.11,21.84"/><path id="ar-b-10" data-name="ar-b" class="cls-6" d="M192.67,113c1.48-4.23-.1-7,1.94-10.66-2.25,2.57-.78,5.92-2.75,10.28m-1,12.4L190,101.69,189.15,125"/><path id="ar-b-11" data-name="ar-b" class="cls-6" d="M197.07,114.9c3-3.34,2.61-6.54,5.88-9.11-3.06,1.51-3,5.17-6.48,8.44m-5.66,11.09,8.13-21.85-9.71,21.18"/><path id="ar-b-12" data-name="ar-b" class="cls-6" d="M200.4,118.38c4-1.95,4.91-5,8.91-6.17-3.4.22-4.74,3.63-9.21,5.32m-9.47,8.07,15.87-17.07-17.08,15.85"/></g><g id="ar-c-4" data-name="ar-c"><path id="ar-a-13" data-name="ar-a" class="cls-3" d="M190.65,126.59l30.85-14.18s.59-.25.44-.65-.79-.14-.79-.14L189.3,123.41m12,.35c4.68.2,7.27-2.69,11.45-2.34s6.57-1.89,8.21-2.49,2.59.6,2.83.15-1-1.49-3.38-1.2-3,2.09-8.11,1.7-6.32,2.09-11,1.49"/><path id="ar-a-14" data-name="ar-a" class="cls-4" d="M190,126.72l33.93-1.3s.64,0,.66-.42-.68-.45-.68-.45L190,123.26m11,4.93c4.24,2,7.74.3,11.46,2.22s6.8.77,8.54.84,2.16,1.55,2.56,1.23-.39-1.78-2.66-2.4-3.56.79-8.14-1.54-6.64-.49-10.69-2.81"/><path id="ar-a-15" data-name="ar-a" class="cls-5" d="M189.33,126.58l31.84,11.79s.6.25.78-.14-.46-.67-.46-.67l-30.86-14.18m8.27,8.76c3.17,3.45,7,3.24,9.75,6.44s6,3.31,7.56,4,1.41,2.25,1.9,2.11.32-1.8-1.55-3.24-3.59-.63-6.93-4.54-5.94-3-8.79-6.68"/><path id="ar-a-16" data-name="ar-a" class="cls-4" d="M188.78,126.21l24.9,23.07s.46.46.77.17-.16-.8-.16-.8l-23.09-24.9M195.49,135c1.61,4.4,5.26,5.69,6.54,9.68s4.26,5.35,5.44,6.64.44,2.61.95,2.67,1-1.53-.19-3.58-3.08-2-4.67-6.85-4.35-5-5.57-9.54"/><path id="ar-b-13" data-name="ar-b" class="cls-6" d="M202.14,122.86c4.48-.25,6.47-2.79,10.6-2.29-3.24-1.09-5.77,1.54-10.55,1.39m-11.84,3.84,21.19-9.71L189.7,124.2"/><path id="ar-b-14" data-name="ar-b" class="cls-6" d="M202,127.67c4.23,1.48,7-.1,10.66,1.94-2.57-2.25-5.92-.78-10.28-2.75m-12.4-1,23.29-.85L190,124.15"/><path id="ar-b-15" data-name="ar-b" class="cls-6" d="M200.1,132.07c3.34,3,6.54,2.61,9.11,5.88-1.51-3.06-5.17-3-8.44-6.48m-11.09-5.66,21.85,8.13-21.18-9.71"/><path id="ar-b-16" data-name="ar-b" class="cls-6" d="M196.62,135.4c1.95,4,5,4.91,6.17,8.91-.22-3.4-3.63-4.74-5.32-9.21m-8.07-9.47,17.07,15.87-15.85-17.08"/></g><circle class="cls-7" cx="190" cy="125" r="13.8"/><path id="ar-h" class="cls-8" d="M194.71,122.08a2.73,2.73,0,0,0-2.38,1.22,4.31,4.31,0,0,0,5-.1,3.64,3.64,0,0,0-2.63-1.16Zm0,.2c.93,0,1.75.39,1.9.82a2.8,2.8,0,0,1-3.84.2,2.25,2.25,0,0,1,1.94-1Z"/><path id="ar-d" class="cls-6" d="M194.91,121.4a2.82,2.82,0,0,0-2.33.83,2.61,2.61,0,0,1-1.07.53c-.1.1,0,.44.19.34a7.08,7.08,0,0,0,1.31-.87,2.85,2.85,0,0,1,2-.49c1.84,0,2.91,1.56,3.15,1.46s-1.06-1.8-3.2-1.8Z"/><path id="ar-e" class="cls-6" d="M198.75,122c-2.43-2.14-5.54-2.43-7.24-.88a4.15,4.15,0,0,0-.78,1.8,5,5,0,0,0,1.12,3.89.73.73,0,0,0-.49.19,7.63,7.63,0,0,1-.83-4.86l.34-1.21c2.34-2,5.54-2.14,7.88,1.07Z"/><circle id="ar-f" class="cls-6" cx="194.66" cy="123.1" r="0.97"/><path id="ar-g" class="cls-6" d="M197.43,123.74a4.2,4.2,0,0,1-4.66.63c-1.07-.63-1.07-.88-.83-.88s.44.25,1.27.68,2.13.39,4.27-.48Z"/><path class="cls-6" d="M187.86,126.94a1,1,0,0,0,.27,1.93.94.94,0,0,0,.7-.47,1.91,1.91,0,0,0,1.17.29h.15a1.75,1.75,0,0,0,1.11-.29,1,1,0,0,0,.78.39,1,1,0,0,0,.87-1.06.94.94,0,0,0-.67-.83.68.68,0,0,1,.43.63.66.66,0,0,1-1.31,0,1.46,1.46,0,0,1-1.31.87,1.59,1.59,0,0,1-1.31-.87.69.69,0,0,1-1.36.09.63.63,0,0,1,.53-.73h0Zm1.07,2.82c-1.07,0-1.46,1-2.43,1.61.49-.25,1-.64,1.7-1.07s1.36.09,1.8.09,1.07-.53,1.8-.09,1.16.82,1.7,1.07c-1-.68-1.36-1.61-2.43-1.61a3,3,0,0,0-1.07.29A3.64,3.64,0,0,0,188.93,129.76Z"/><path class="cls-6" d="M188.54,131a6.54,6.54,0,0,0-1.75.39c2-.49,2.34.19,3.21.19s1.26-.63,3.21-.19a5.49,5.49,0,0,0-3.21-.25C189.56,131.12,189.27,131,188.54,131Z"/><path class="cls-6" d="M186.89,131.32h-.39c2.24.24,1.17,1.5,3.5,1.5s1.26-1.26,3.5-1.45c-2.33-.25-1.6,1.16-3.5,1.16S188.74,131.32,186.89,131.32Z"/><path class="cls-6" d="M191.94,134.77a1.94,1.94,0,1,0-3.88,0,1.94,1.94,0,1,1,3.88,0Z"/><path id="ar-e-2" data-name="ar-e" class="cls-6" d="M181.4,122c2.43-2.14,5.54-2.43,7.24-.88a4.27,4.27,0,0,1,.78,1.8,5,5,0,0,1-1.12,3.89.73.73,0,0,1,.49.19,7.69,7.69,0,0,0,.82-4.86l-.34-1.21c-2.33-2-5.54-2.14-7.87,1.07Z"/><path id="ar-d-2" data-name="ar-d" class="cls-6" d="M185.24,121.4a2.82,2.82,0,0,1,2.33.83,2.5,2.5,0,0,0,1.07.53c.1.1,0,.44-.19.34a6.72,6.72,0,0,1-1.32-.87,2.83,2.83,0,0,0-1.94-.49c-1.85,0-2.92,1.56-3.16,1.46s1.07-1.8,3.21-1.8Z"/><path id="ar-h-2" data-name="ar-h" class="cls-8" d="M185.19,122.08a2.71,2.71,0,0,0-2.38,1.22,4.29,4.29,0,0,0,5-.1,3.6,3.6,0,0,0-2.62-1.16Zm0,.2c.92,0,1.75.39,1.89.82a2.79,2.79,0,0,1-3.83.2,2.24,2.24,0,0,1,1.94-1Z"/><circle id="ar-f-2" data-name="ar-f" class="cls-6" cx="185.29" cy="123.1" r="0.97"/><path id="ar-g-2" data-name="ar-g" class="cls-6" d="M182.71,123.74a4.22,4.22,0,0,0,4.67.63c1.07-.63,1.07-.88.82-.88s-.44.25-1.26.68-2.14.39-4.28-.48Z"/></svg>