<svg id="flag-icons-be" xmlns="http://www.w3.org/2000/svg" viewBox="0 0 380 248.85"><defs><style>.cls-1{fill:#229e45;}.cls-1,.cls-2,.cls-3,.cls-4,.cls-5{fill-rule:evenodd;}.cls-2{fill:#f8e509;}.cls-3{fill:#2b49a3;}.cls-4{fill:#ffffef;}.cls-5,.cls-8{fill:#fff;}.cls-6{fill:#309e3a;}.cls-7{fill:#f7ffff;}</style></defs><path class="cls-1" d="M0,.58H380V249.42H0Z" transform="translate(0 -0.58)"/><path class="cls-2" d="M192.62,197.61,304.31,125.1,191.94,52.39,79.82,125.29l112.76,72.32Z" transform="translate(0 -0.58)"/><path class="cls-3" d="M241.28,125a47.24,47.24,0,1,1-94.44,2.93q0-1.52,0-3a47.24,47.24,0,0,1,94.44.1Z" transform="translate(0 -0.58)"/><path class="cls-4" d="M178.48,153.29l-1.46-.88-1.5.78.34-1.7-1.17-1.22,1.65-.19.78-1.56.73,1.61,1.65.29-1.26,1.17m31.93,9.72-1.46-.88-1.55.78.34-1.7-1.17-1.22,1.7-.19.78-1.56.68,1.61,1.65.29-1.21,1.17m-13.42-11.13-1.26-.73-1.31.63.29-1.46-1-1.07,1.41-.15.68-1.31.58,1.36,1.46.25-1.07,1m32.17-3.11-1.26-.73-1.26.63.29-1.41-1-1,1.41-.19.63-1.27.63,1.31,1.41.25-1.07,1m-32.37-8.12-1.46-.87-1.51.78.34-1.71-1.16-1.21,1.65-.19.78-1.51.73,1.55,1.65.3-1.26,1.16M157,119.65l-1.46-.87-1.46.78.3-1.7-1.17-1.22,1.7-.19.78-1.56.68,1.6,1.65.3L156.76,118m4.9,21.14-1.45-.82-1.51.73.34-1.65-1.17-1.27,1.66-.19.77-1.46.73,1.51,1.65.34-1.26,1.11m48.9-24.93-1.27-.73-1.36.63.29-1.45-1-1.12,1.46-.15.68-1.36.63,1.41,1.46.24-1.12,1m-2.43,14.2-1.16-.64-1,.49.2-1.17-.78-.82,1.17-.15.53-1.07.49,1.12,1.16.19-.87.78m-52.69,18.71-1-.58-1,.49.2-1.12-.78-.83,1.16-.09.49-1,.49,1,1.11.24-.82.78m74.17,5.59-.83-.39-.83.34.2-.83-.63-.63.92-.1.44-.73.34.78.92.15-.68.58" transform="translate(0 -0.58)"/><path class="cls-4" d="M154.76,142.64l-1-.58-1,.49.24-1.12-.82-.83,1.11-.1.54-1,.49,1,1.11.25-.82.78" transform="translate(0 -0.58)"/><path class="cls-4" d="M154.76,142.64l-1-.58-1,.49.24-1.12-.82-.83,1.11-.1.54-1,.49,1,1.11.25-.82.78m15.65,1.11-1-.58-1,.49.2-1.12-.78-.83,1.12-.1.48-1,.49,1,1.12.25-.83.78m-1.8,6.31-1-.58-1,.49.19-1.12-.77-.83,1.11-.14.49-1,.49,1,1.11.24-.82.78m32.42-8.27-1-.58-1,.49.2-1.12-.78-.83,1.12-.09.53-1,.49,1,1.07.19-.83.78m-9.28,1.16-1-.58-1,.49.24-1.12-.78-.83,1.12-.09.48-1,.49,1,1.12.19-.83.78m-25.51-2.14-.59-.34-.63.29.1-.73-.49-.48.73-.1.34-.63.24.68.73.09-.48.49m62.11,16.87-1-.54-1,.49.24-1.12-.78-.83,1.12-.14.49-1,.48,1,1.12.24-.82.78m-7.78,2.14-.78-.49-.82.49.19-1-.68-.68,1-.09.39-.83.39.83,1,.19-.73.63m3.89.88-.78-.49-.77.44.14-.88-.58-.63.87-.09.39-.78.34.78.88.14-.64.63M234,142.89l-.72-.44-.78.39.19-.83-.58-.63.83-.1.38-.73.34.78.83.15-.63.58m-14.24,15.46-1-.54-1,.49.25-1.07-.78-.73,1.07-.15.53-.92.49,1,1,.2-.78.68m.2,5.29-.88-.48-.87.44.19-1.07-.68-.73,1-.15.49-.92.39,1,1,.19-.73.68m-7.05-8.45-.73-.44-.77.39.19-.88-.58-.58.82-.1.39-.77.34.77.83.15-.63.58m-6.56.88-.73-.44-.78.39.19-.88-.58-.58.83-.1.39-.77.34.77.82.15-.58.58m-11.33-9.13-.72-.44-.78.39.19-.83-.58-.63.83-.1.38-.73.34.78.83.15-.63.53m1.41,21.14-.63-.34-.64.34.15-.73-.49-.48.68-.15.34-.63.3.68.73.1-.54.48m-17.11-32.07-1.46-.83-1.5.73.34-1.65-1.17-1.27,1.65-.19.78-1.51.73,1.56,1.65.29L178.19,128" transform="translate(0 -0.58)"/><path class="cls-5" d="M238.17,142a45.66,45.66,0,0,0,2.13-7.34c-25.07-22.06-53.07-33.39-88.45-31.06a46.08,46.08,0,0,0-3.11,7.73A113.31,113.31,0,0,1,238.17,142Z" transform="translate(0 -0.58)"/><path class="cls-6" d="M226.89,129.57l.87.48a1.28,1.28,0,0,0-.09.88,1.09,1.09,0,0,0,.48.58,1.4,1.4,0,0,0,.78.29.63.63,0,0,0,.49-.29.42.42,0,0,0,.05-.34l-.15-.39-.58-.63a2.75,2.75,0,0,1-.68-1.12,1.35,1.35,0,0,1,.77-1.6,1.48,1.48,0,0,1,.83-.1,2.67,2.67,0,0,1,1,.44,2.9,2.9,0,0,1,1,1.17,1.46,1.46,0,0,1-.24,1.26l-.87-.53a1.21,1.21,0,0,0,.09-.68,1.55,1.55,0,0,0-1.16-.73.36.36,0,0,0-.29.14.38.38,0,0,0,0,.34c0,.2.24.49.58.83l.73,1a1.47,1.47,0,0,1-.1,1.56,1.49,1.49,0,0,1-.68.53,1.46,1.46,0,0,1-.92.1,2.92,2.92,0,0,1-1-.49,2.16,2.16,0,0,1-1-1.21,1.77,1.77,0,0,1,.19-1.46Zm-4.28-2.77,1,.48a1.31,1.31,0,0,0-.09.78,1,1,0,0,0,.48.63,1,1,0,0,0,.78.2.54.54,0,0,0,.49-.29.61.61,0,0,0,0-.3.48.48,0,0,0-.2-.38l-.58-.64a2.88,2.88,0,0,1-.73-1.06,1.34,1.34,0,0,1,.15-1.17,1.32,1.32,0,0,1,.58-.49,1.45,1.45,0,0,1,.82-.09,1.93,1.93,0,0,1,1,.38,2.13,2.13,0,0,1,1,1.12,1.46,1.46,0,0,1-.15,1.27l-.92-.54a.76.76,0,0,0,.1-.63,1.21,1.21,0,0,0-.49-.49,1.18,1.18,0,0,0-.73-.24.42.42,0,0,0-.29.19.4.4,0,0,0,0,.34c0,.15.24.44.58.83a4.76,4.76,0,0,1,.78.88,1.44,1.44,0,0,1,0,1.6,1.56,1.56,0,0,1-1.55.68,2.79,2.79,0,0,1-1.07-.44,2.26,2.26,0,0,1-1-1.16A2,2,0,0,1,222.61,126.8Zm-5.25-1.46,2.73-4.37,3.25,1.94-.48.78-2.34-1.46-.63,1,2.24,1.36-.49.78L219.45,124l-.73,1.21,2.43,1.46-.43.78-3.36-2Zm-7.68-6.27.44-.78,1.95,1.07-.93,1.8a3.48,3.48,0,0,1-2.33-.29,2.86,2.86,0,0,1-1.07-1,2.21,2.21,0,0,1-.39-1.27,2.81,2.81,0,0,1,.39-1.36,3,3,0,0,1,1-1.12,2,2,0,0,1,1.31-.43,3.23,3.23,0,0,1,1.22.34,2.42,2.42,0,0,1,1.12,1.07,2,2,0,0,1,.14,1.31l-1-.29a1.08,1.08,0,0,0-.09-.73,1.24,1.24,0,0,0-.59-.54,1.39,1.39,0,0,0-1.16-.14,2.31,2.31,0,0,0-1,1,2.38,2.38,0,0,0-.24,1.46,1.25,1.25,0,0,0,.78.87l.63.2h.63l.29-.59-1.07-.58Zm-33.43-8.26.77-5.15,1.56.24.39,3.64,1.46-3.4,1.5.24-.73,5.16-1-.15.58-4-1.6,3.89-1-.15-.44-4.23-.58,4.08-1-.14Zm-5.21-.63.49-5.16,3.79.34,0,.88-2.82-.24-.09,1.11,2.57.25-.05.87-2.57-.24-.15,1.46,2.87.24-.1.87-3.89-.38Z" transform="translate(0 -0.58)"/><path class="cls-6" d="M153.74,106.92a3.6,3.6,0,0,1,.24-1.31l.49-.68.73-.49a2.83,2.83,0,0,1,1.12-.14,2.42,2.42,0,0,1,1.8.77,2.59,2.59,0,0,1,.63,2A2.63,2.63,0,0,1,158,109a2.39,2.39,0,0,1-1.85.68,2.36,2.36,0,0,1-2.43-2.67Z" transform="translate(0 -0.58)"/><path class="cls-7" d="M154.81,106.92a1.91,1.91,0,0,0,.39,1.36,1.13,1.13,0,0,0,1,.49,1.48,1.48,0,0,0,1.07-.44,2.36,2.36,0,0,0,.44-1.31,1.82,1.82,0,0,0-.39-1.36,1.35,1.35,0,0,0-2,0,2,2,0,0,0-.49,1.31Z" transform="translate(0 -0.58)"/><path class="cls-6" d="M159.87,109.64l0-5.2h2.19a3.26,3.26,0,0,1,1.22.2,1,1,0,0,1,.58.48,2,2,0,0,1,.24.83,1.63,1.63,0,0,1-.34,1,2,2,0,0,1-1.07.49,1.72,1.72,0,0,1,.59.38l.58.88.63,1h-1.26l-.73-1.12a7.38,7.38,0,0,0-.58-.77.75.75,0,0,0-.3-.2,2,2,0,0,0-.48-.1h-.24v2.19Z" transform="translate(0 -0.58)"/><path class="cls-8" d="M160.94,106.63h.77a3.94,3.94,0,0,0,1,0l.25-.25a.51.51,0,0,0,.14-.38.58.58,0,0,0-.14-.44.64.64,0,0,0-.39-.2H161v1.27Z" transform="translate(0 -0.58)"/><path class="cls-6" d="M165.8,104.68l1.89.1a3.93,3.93,0,0,1,1,.15,1.9,1.9,0,0,1,.73.48,2.38,2.38,0,0,1,.49.93,4.41,4.41,0,0,1,.1,1.21,2.62,2.62,0,0,1-.83,2,2.41,2.41,0,0,1-.73.39h-1l-1.95-.05Z" transform="translate(0 -0.58)"/><path class="cls-8" d="M166.77,105.61l-.15,3.4.78.1H168l.44-.25c.14-.09.19-.24.29-.48l.15-1,0-.88c-.1-.24-.15-.39-.29-.49a1,1,0,0,0-.49-.29,4.58,4.58,0,0,0-.83-.09h-.48Z" transform="translate(0 -0.58)"/><path class="cls-6" d="M191.22,114l1.21-5.06,1.6.39a5.94,5.94,0,0,1,1.22.39,1.23,1.23,0,0,1,.58.63,1.56,1.56,0,0,1,0,1.07,1.47,1.47,0,0,1-.92,1.12,1.44,1.44,0,0,1-.54.14,5.58,5.58,0,0,1-1.07-.19l-.68-.15-.48,1.9-1-.24Z" transform="translate(0 -0.58)"/><path class="cls-8" d="M193.21,110l-.34,1.46.58.1a2,2,0,0,0,.83.09.69.69,0,0,0,.58-.48l-.05-.54a.69.69,0,0,0-.39-.34l-.73-.19-.48-.1Z" transform="translate(0 -0.58)"/><path class="cls-6" d="M196,115.43l1.7-4.91,2.09.73a3.82,3.82,0,0,1,1.07.48,1.84,1.84,0,0,1,.43.73,1.26,1.26,0,0,1-.09.83,1.13,1.13,0,0,1-.63.77,1.47,1.47,0,0,1-1.12.15l.39.58.29,1,.24,1.16-1.17-.39-.34-1.31a6.13,6.13,0,0,0-.29-.92.81.81,0,0,0-.19-.29,1.74,1.74,0,0,0-.49-.25l-.19,0-.73,2-1-.34Z" transform="translate(0 -0.58)"/><path class="cls-8" d="M198,113l.73.24.92.24c.15,0,.25,0,.34-.09l.25-.34v-.49a.68.68,0,0,0-.29-.29l-.73-.25-.78-.29Z" transform="translate(0 -0.58)"/><path class="cls-6" d="M202.1,115.23a3.42,3.42,0,0,1,.63-1.21,1.68,1.68,0,0,1,.64-.54,2.1,2.1,0,0,1,.77-.24,3.22,3.22,0,0,1,1.12.14,2.46,2.46,0,0,1,1.56,1.22,2.59,2.59,0,0,1,.05,2.09,2.72,2.72,0,0,1-1.22,1.7,2.8,2.8,0,0,1-3.5-1.12,2.72,2.72,0,0,1-.05-2Z" transform="translate(0 -0.58)"/><path class="cls-8" d="M203.12,115.52a2.24,2.24,0,0,0,0,1.36,1.53,1.53,0,0,0,.88.78,1.38,1.38,0,0,0,1.07-.14,2,2,0,0,0,.82-1.17,2.24,2.24,0,0,0,0-1.41,1.4,1.4,0,0,0-2-.58,2,2,0,0,0-.78,1.16Z" transform="translate(0 -0.58)"/><path class="cls-6" d="M212.21,122.47l2.38-4.61,1.95,1a3.9,3.9,0,0,1,1,.68,1.67,1.67,0,0,1,.34.73,1.05,1.05,0,0,1-.19.82,1.34,1.34,0,0,1-.73.73,1.75,1.75,0,0,1-1.12-.05,2,2,0,0,1,.29.64l.15,1,.09,1.21-1.11-.58-.15-1.36-.15-1a.7.7,0,0,0-.19-.29,1.86,1.86,0,0,0-.44-.29l-.19-.1-1,1.95-.93-.49Z" transform="translate(0 -0.58)"/><path class="cls-8" d="M214.5,120.29l.68.34.87.38a.43.43,0,0,0,.34-.09.74.74,0,0,0,.39-.73.61.61,0,0,0-.29-.34l-.63-.39-.73-.34Z" transform="translate(0 -0.58)"/><path class="cls-6" d="M231.41,132a3,3,0,0,1,1.75-1.31,2,2,0,0,1,.78,0,2.13,2.13,0,0,1,1.07.48,2.44,2.44,0,0,1,1.11,1.61,2.88,2.88,0,0,1-.53,2,2.72,2.72,0,0,1-1.7,1.26,2.68,2.68,0,0,1-3-2,2.66,2.66,0,0,1,.48-2Z" transform="translate(0 -0.58)"/><path class="cls-8" d="M232.28,132.48a2.27,2.27,0,0,0-.38,1.37,1.42,1.42,0,0,0,.63,1,1.31,1.31,0,0,0,1.07.19,1.91,1.91,0,0,0,1.11-.92,1.6,1.6,0,0,0,.39-1.31,1.34,1.34,0,0,0-.58-1,1.17,1.17,0,0,0-1.12-.19,2,2,0,0,0-1.07.87Z" transform="translate(0 -0.58)"/><path class="cls-6" d="M185.33,111.88l.83-3.7,2.72.64-.14.63-2-.49-.19.83,1.8.43-.15.64-1.8-.49-.24,1,2,.49-.15.63Z" transform="translate(0 -0.58)"/></svg>