<svg id="flags" xmlns="http://www.w3.org/2000/svg" viewBox="0 0 380 251.18"><defs><style>.cls-1,.cls-6{fill:red;}.cls-2{fill:#060;}.cls-3,.cls-4,.cls-7,.cls-8,.cls-9{fill:#ff0;}.cls-3,.cls-4,.cls-5,.cls-6,.cls-8,.cls-9{stroke:#000;}.cls-3,.cls-4{stroke-linecap:round;stroke-linejoin:round;fill-rule:evenodd;}.cls-3{stroke-width:0.7px;}.cls-4{stroke-width:0.6px;}.cls-11,.cls-5{fill:#fff;}.cls-5,.cls-6,.cls-8{stroke-miterlimit:4.55;}.cls-5{stroke-width:0.8px;}.cls-6,.cls-8{stroke-width:0.57px;}.cls-9{stroke-miterlimit:4.55;stroke-width:0.57px;}.cls-10{fill:#039;}</style></defs><g id="portugal"><path class="cls-1" d="M165-1.18H380V250H165Z" transform="translate(0 1.18)"/><path class="cls-2" d="M.08-1.18H165V250H0Z" transform="translate(0 1.18)"/><path class="cls-3" d="M208.48,158.3c-16.8-.48-93.75-48.53-94.24-56.2l4.2-7.08c7.62,11.09,86.33,57.82,94.05,56.16l-4,7.12" transform="translate(0 1.18)"/><path class="cls-3" d="M117.56,94c-1.51,4.06,20.07,17.39,46.05,33.21s48.34,25.54,50,24.17l.73-1.42c-.29.49-1.07.64-2.25.3-7-2.05-25.34-10.45-48-24.17s-42.38-26.42-45.41-31.79a3.23,3.23,0,0,1-.34-1.61h-.1l-.63,1.12Zm91.31,64.46c-.29.54-.83.54-1.8.49-6.3-.73-25.4-10-47.86-23.49-26.27-15.72-47.95-30-45.56-33.74l.64-1.17.1,0c-2.1,6.34,42.77,32,45.41,33.64,25.93,16.11,47.85,25.49,49.81,23.05l-.74,1.17Z" transform="translate(0 1.18)"/><path class="cls-3" d="M165.12,106.74c16.75-.15,37.5-2.3,49.42-7L212,95.51c-7.08,3.91-27.88,6.49-47,6.84-22.65-.2-38.62-2.3-46.63-7.67l-2.44,4.44c14.75,6.2,29.79,7.57,49.22,7.62" transform="translate(0 1.18)"/><path class="cls-3" d="M215.27,99.81c-.44.63-8.2,3.32-19.68,5.27A203.15,203.15,0,0,1,165,107.33a217.37,217.37,0,0,1-29.29-1.86c-12-1.9-18.22-4.54-20.51-5.47l.58-1.12A90.88,90.88,0,0,0,136,104.25,215.41,215.41,0,0,0,165,106.06a205.28,205.28,0,0,0,30.33-2.25c11.72-1.9,18.16-4.35,19-5.47Zm-2.3-4.3c-1.26,1-7.61,3.27-18.75,5a201.68,201.68,0,0,1-29.05,2,194.72,194.72,0,0,1-28-1.81,75.18,75.18,0,0,1-19.53-4.93l.63-1.12c1.66.88,7.52,3.22,19,4.88a206.23,206.23,0,0,0,27.88,1.71,199.8,199.8,0,0,0,28.81-2c11.23-1.56,17.29-4.4,18.21-5.13ZM109.94,127c10.35,5.56,33.26,8.39,55,8.59,19.77,0,45.55-3.08,55.17-8.2l-.29-5.57c-3,4.74-30.57,9.28-55.08,9.08s-47.27-4-54.84-8.88v5" transform="translate(0 1.18)"/><path class="cls-3" d="M220.64,126.17v1.32c-1.46,1.76-10.55,4.4-21.92,6.2a226.71,226.71,0,0,1-34,2.35,213.45,213.45,0,0,1-32.32-2.25,80.17,80.17,0,0,1-23.1-6.2V126c5.08,3.37,18.7,5.81,23.29,6.54a211.12,211.12,0,0,0,32.13,2.2,224.73,224.73,0,0,0,33.84-2.3c8.2-1.17,19.83-4.24,22.12-6.3Zm0-4.73v1.37c-1.46,1.7-10.55,4.34-21.92,6.15a226.7,226.7,0,0,1-34,2.34,218.81,218.81,0,0,1-32.28-2.2,80.2,80.2,0,0,1-23.14-6.25v-1.56c5.08,3.37,18.7,5.86,23.29,6.54a211.18,211.18,0,0,0,32.13,2.25,218.79,218.79,0,0,0,33.84-2.34c8.2-1.17,19.83-4.25,22.12-6.3Zm-55.76,35.89c-23.73-.15-44.1-6.45-48.39-7.52l3.12,4.88c7.57,3.22,27.44,8,45.51,7.47S199,160.21,210,154.84l3.23-5.13c-7.57,3.57-33.35,7.62-48.34,7.62" transform="translate(0 1.18)"/><path class="cls-4" d="M211.27,153.67c-.48.72-1,1.44-1.47,2.14a126.78,126.78,0,0,1-16.94,4.35,153.14,153.14,0,0,1-27.93,2.54c-21.05-.29-38.29-4.4-46.39-7.91l-.69-1.12.15-.2,1.07.44a149.27,149.27,0,0,0,46,7.57,158.92,158.92,0,0,0,27.4-2.49c12.11-2.44,17-4.25,18.5-5.08Zm2.78-4.59h0c-.36.62-.71,1.24-1.08,1.85a121.14,121.14,0,0,1-21.48,4.79A174.7,174.7,0,0,1,165.17,158a181.14,181.14,0,0,1-49.07-7.32l-.59-1.22a207.4,207.4,0,0,0,49.66,7.32,178.15,178.15,0,0,0,26.17-2.29c12.94-2,19.44-4.1,21.39-4.74a.47.47,0,0,0,0-.1l1.37-.53Z" transform="translate(0 1.18)"/><path class="cls-3" d="M214.34,122.56c.1,15.63-7.91,29.69-14.35,35.89a51.76,51.76,0,0,1-35.31,14.65c-15.77.29-30.62-10-34.62-14.5-7.81-8.84-14.16-20-14.36-35.16,1-17.09,7.67-29,17.39-37.11a51.86,51.86,0,0,1,33.4-11.82c12.4.34,26.95,6.45,37,18.56,6.55,7.91,9.43,16.5,10.89,29.54ZM164.83,69C195.1,69,220,93.7,220,123.88A55.09,55.09,0,1,1,164.83,69" transform="translate(0 1.18)"/><path class="cls-3" d="M165,68.85a55,55,0,1,1-55,55,55.14,55.14,0,0,1,55-55Zm-53.81,55A53.79,53.79,0,1,0,165,70.12,54,54,0,0,0,111.16,123.88Z" transform="translate(0 1.18)"/><path class="cls-3" d="M165,73.44a50.42,50.42,0,1,1-.05,0ZM115.8,123.83A49.2,49.2,0,1,0,165,74.66,49.38,49.38,0,0,0,115.8,123.83Z" transform="translate(0 1.18)"/><path class="cls-3" d="M167.22,68.65h-4.74V179.2h4.74Z" transform="translate(0 1.18)"/><path class="cls-3" d="M166.73,68H168V179.84h-1.22V68ZM162,68h1.23V179.84H162V68Z" transform="translate(0 1.18)"/><path class="cls-3" d="M220,126v-4.15l-3.32-3.08-18.9-5L170.54,111l-32.72,1.66-23.38,5.57-4.69,3.51v4l11.91-5.37L150,116h27.25l20,2.2,13.87,3.36Z" transform="translate(0 1.18)"/><path class="cls-3" d="M165,115.38a192.31,192.31,0,0,1,35.6,3.18c10.3,2,17.58,4.64,20,7.52v1.46c-2.93-3.61-12.69-6.25-20.26-7.81a202.5,202.5,0,0,0-71.49.1c-7.81,1.56-18.26,4.64-19.58,7.71v-1.46c.73-2.15,8.5-5.33,19.43-7.52A198,198,0,0,1,165,115.38Zm0-4.73a192.84,192.84,0,0,1,35.65,3.17c10.25,2.05,17.58,4.64,20,7.57v1.42c-3-3.62-12.79-6.26-20.31-7.77A189.92,189.92,0,0,0,165,111.87a196.18,196.18,0,0,0-36,3.22c-7.57,1.46-18.46,4.69-19.68,7.72v-1.47c.73-2.1,8.69-5.37,19.43-7.47A197.13,197.13,0,0,1,165,110.65Zm-.24-24.08c20.46-.09,38.33,2.88,46.49,7.08l3,5.13C207.12,95,187.83,91,164.73,91.6c-18.8.1-38.87,2.05-49,7.42l3.57-6c8.3-4.3,27.83-6.45,45.41-6.5" transform="translate(0 1.18)"/><path class="cls-3" d="M165,90.82c11.72,0,22.95.64,31.94,2.25,8.35,1.56,16.36,3.9,17.48,5.17l.88,1.57C212.49,98,205.6,96,196.71,94.29A179.34,179.34,0,0,0,165,92.09c-13.18,0-23.43.64-32.22,2.2-9.28,1.71-15.73,4.2-17.34,5.37l.88-1.61c3.08-1.61,8-3.52,16.26-5,9.08-1.66,19.39-2.15,32.42-2.25Zm0-4.69a181.64,181.64,0,0,1,30.82,2.15c6.78,1.32,13.47,3.37,16,5.18L213,95.51c-2.19-2.44-10.45-4.74-17.77-6-8.5-1.46-19.09-2-30.28-2.15A183,183,0,0,0,134,89.6c-8,1.56-13.19,3.37-15.39,4.79l1.13-1.76c3-1.56,7.91-3,14.06-4.25A185.6,185.6,0,0,1,165,86.13Zm27.35,60.6a144,144,0,0,0-27.35-2c-34.13.39-45.11,7-46.48,9L116,149.52c8.64-6.3,27.2-9.82,49.17-9.48a179.65,179.65,0,0,1,29.49,2.54l-2.34,4.15" transform="translate(0 1.18)"/><path class="cls-4" d="M164.78,144.1c9.47.14,18.8.48,27.83,2.19l-.68,1.17a146.47,146.47,0,0,0-27.1-2.1c-12.6-.09-25.39,1.08-36.43,4.25-3.52,1-9.28,3.23-9.91,5.08l-.64-1.07c.2-1.08,3.71-3.37,10.26-5.18,12.69-3.66,24.56-4.25,36.62-4.39Zm.44-4.79a171.44,171.44,0,0,1,29.83,2.59l-.68,1.22a155.17,155.17,0,0,0-29.1-2.54c-12.65,0-26,.93-38.24,4.44-3.9,1.17-10.74,3.62-10.93,5.57l-.64-1.12c.15-1.76,6-4.11,11.33-5.67a139.11,139.11,0,0,1,38.43-4.49Z" transform="translate(0 1.18)"/><path class="cls-3" d="M213.66,150.15l-4.1,6.35-11.77-10.45-30.57-20.51-34.42-19-17.93-6.1,3.81-7.08,1.32-.68,11.14,2.78,36.62,18.9,21.14,13.33,17.73,12.69,7.22,8.35Z" transform="translate(0 1.18)"/><path class="cls-3" d="M114.24,100.64c3.17-2.1,26.22,8.15,50.29,22.7s47.08,31.06,45,34.18l-.69,1-.34.24c.1,0,.44-.49,0-1.61-1.07-3.37-17.33-16.36-44.43-32.71-26.37-15.73-48.35-25.2-50.54-22.47l.68-1.36Zm100.25,49.41c1.95-3.9-19.39-20-45.9-35.69C141.49,99,121.91,89.94,118.34,92.63l-.78,1.46s0-.09.2-.24a3.45,3.45,0,0,1,2.19-.49c6.16,0,23.73,8.11,48.34,22.27,10.8,6.25,45.61,28.61,45.47,34.86,0,.54,0,.64-.15.93Z" transform="translate(0 1.18)"/><path class="cls-5" d="M132,129.92a33.29,33.29,0,0,0,32.94,33A33,33,0,0,0,198,130V86L132,85.86v44.06Z" transform="translate(0 1.18)"/><path class="cls-6" d="M133.23,130a31.32,31.32,0,0,0,9.33,22.22,31.53,31.53,0,0,0,44.67.11,31.33,31.33,0,0,0,9.28-22.22V87.31H133.34V130m50.56-29.84v27.17l-.06,2.83a18.48,18.48,0,0,1-5.55,13.34A18.91,18.91,0,0,1,165,149a18.72,18.72,0,0,1-13.28-5.66A18.91,18.91,0,0,1,146.12,130V100Z" transform="translate(0 1.18)"/><g id="pt-e"><g id="pt-d"><path class="cls-7" d="M137.34,98.47c0-3,2.22-3.77,2.22-3.77A3.77,3.77,0,0,1,142,98.53h-4.61" transform="translate(0 1.18)"/><path class="cls-8" d="M135.45,94.75l-.39,3.5h2.33c0-2.89,2.23-3.33,2.23-3.33a3.33,3.33,0,0,1,2.28,3.33h2.33l-.45-3.55h-8.33Zm-.56,3.56h9.45a.36.36,0,0,1,.33.39c0,.27-.16.44-.33.44h-9.45c-.16,0-.33-.17-.33-.44a.38.38,0,0,1,.39-.39Z" transform="translate(0 1.18)"/><path class="cls-8" d="M138.34,98.25a2.37,2.37,0,0,1,1.28-2.33,2.45,2.45,0,0,1,1.28,2.33h-2.56m-3.22-5h9c.17,0,.34.22.34.45a.36.36,0,0,1-.34.33h-9a.38.38,0,0,1-.34-.39.36.36,0,0,1,.34-.33Zm.22.84h8.56a.39.39,0,0,1,0,.77h-8.62c-.22,0-.33-.16-.33-.39s.11-.38.33-.38Zm2.78-5.89h.66v.44h.5V88.2H140v.5h.5v-.56h.66v1.11c0,.22-.11.34-.28.34h-2.44a.31.31,0,0,1-.33-.28V88.2Zm2.55,1.5.17,3.55h-2.39l.17-3.61h2" transform="translate(0 1.18)"/><path id="pt-a" class="cls-8" d="M137.78,91.36v1.89h-2.22V91.36Z" transform="translate(0 1.18)"/><path id="pt-a-2" data-name="pt-a" class="cls-8" d="M143.67,91.36v1.89h-2.22V91.36Z" transform="translate(0 1.18)"/><path id="pt-b" class="cls-8" d="M135.17,89.92h.67v.55h.5v-.55H137v.55h.5v-.55h.66V91c0,.22-.11.33-.28.33h-2.38a.34.34,0,0,1-.34-.33h0V89.92Z" transform="translate(0 1.18)"/><path id="pt-b-2" data-name="pt-b" class="cls-8" d="M141.06,89.92h.67v.55h.5v-.55h.67v.55h.5v-.55h.66V91c0,.22-.11.33-.28.33H141.4a.34.34,0,0,1-.34-.33h0V89.92Z" transform="translate(0 1.18)"/><path d="M139.39,90.81a.25.25,0,1,1,.5,0v.89h-.5v-.89" transform="translate(0 1.18)"/><path id="pt-c" d="M136.45,92a.22.22,0,1,1,.44,0v.67h-.44V92" transform="translate(0 1.18)"/><path id="pt-c-2" data-name="pt-c" d="M142.34,92a.22.22,0,1,1,.44,0v.67h-.44V92" transform="translate(0 1.18)"/></g><g id="pt-d-2" data-name="pt-d"><path class="cls-7" d="M137.34,124.2c0-3.06,2.22-3.78,2.22-3.78a3.78,3.78,0,0,1,2.39,3.83h-4.61" transform="translate(0 1.18)"/><path class="cls-8" d="M135.45,120.48l-.39,3.5h2.33a3.11,3.11,0,0,1,2.23-3.34A3.33,3.33,0,0,1,141.9,124h2.33l-.45-3.56h-8.33Zm-.56,3.55h9.45a.37.37,0,0,1,.33.39c0,.28-.16.44-.33.44h-9.45c-.16,0-.33-.16-.33-.44A.38.38,0,0,1,135,124Z" transform="translate(0 1.18)"/><path class="cls-8" d="M138.34,124a2.38,2.38,0,0,1,1.28-2.34A2.47,2.47,0,0,1,140.9,124h-2.56m-3.22-5h9c.17,0,.34.22.34.44a.36.36,0,0,1-.34.33h-9a.37.37,0,0,1-.34-.39.36.36,0,0,1,.34-.33Zm.22.83h8.56a.4.4,0,0,1,0,.78h-8.62c-.22,0-.33-.17-.33-.39s.11-.39.33-.39Zm2.78-5.89h.66v.44h.5v-.44H140v.5h.5v-.56h.66V115c0,.22-.11.33-.28.33h-2.44a.31.31,0,0,1-.33-.28v-1.11Zm2.55,1.5.17,3.56h-2.39l.17-3.62h2" transform="translate(0 1.18)"/><path id="pt-a-3" data-name="pt-a" class="cls-8" d="M137.78,117.09V119h-2.22v-1.89Z" transform="translate(0 1.18)"/><path id="pt-a-4" data-name="pt-a" class="cls-8" d="M143.67,117.09V119h-2.22v-1.89Z" transform="translate(0 1.18)"/><path id="pt-b-3" data-name="pt-b" class="cls-8" d="M135.17,115.64h.67v.56h.5v-.56H137v.56h.5v-.56h.66v1.11c0,.23-.11.34-.28.34h-2.38a.34.34,0,0,1-.34-.34h0v-1.11Z" transform="translate(0 1.18)"/><path id="pt-b-4" data-name="pt-b" class="cls-8" d="M141.06,115.64h.67v.56h.5v-.56h.67v.56h.5v-.56h.66v1.11c0,.23-.11.34-.28.34H141.4a.34.34,0,0,1-.34-.34h0v-1.11Z" transform="translate(0 1.18)"/><path d="M139.39,116.53a.25.25,0,0,1,.5,0v.89h-.5v-.89" transform="translate(0 1.18)"/><path id="pt-c-3" data-name="pt-c" d="M136.45,117.75a.22.22,0,1,1,.44,0v.67h-.44v-.67" transform="translate(0 1.18)"/><path id="pt-c-4" data-name="pt-c" d="M142.34,117.75a.22.22,0,1,1,.44,0v.67h-.44v-.67" transform="translate(0 1.18)"/></g><g id="pt-d-3" data-name="pt-d"><path class="cls-7" d="M147.37,151c-2.13-2.2-1.12-4.24-1.12-4.24a3.78,3.78,0,0,1,4.4,1l-3.24,3.28" transform="translate(0 1.18)"/><path class="cls-9" d="M143.39,149.72l2.21,2.75,1.65-1.66c-2.05-2-.8-3.92-.8-3.92a3.31,3.31,0,0,1,4,.73l1.64-1.66-2.83-2.19-5.88,5.92Zm2.13,2.9,6.66-6.7a.37.37,0,0,1,.51,0c.2.2.2.43.08.55l-6.65,6.7a.39.39,0,0,1-.55-.07.38.38,0,0,1,0-.55Z" transform="translate(0 1.18)"/><path class="cls-9" d="M147.91,150.14a2.36,2.36,0,0,1-.75-2.55,2.46,2.46,0,0,1,2.55.74l-1.8,1.81m-5.82-1.24,6.39-6.42c.11-.12.39-.08.55.08a.38.38,0,0,1,0,.47l-6.38,6.42a.37.37,0,0,1-.52-.51Zm.75.43,6-6.07a.39.39,0,0,1,.55.55l-6.07,6.11a.33.33,0,0,1-.51,0,.35.35,0,0,1,0-.51Zm-2.22-6.12.47-.47.32.31.35-.35-.32-.31.51-.52.36.36.35-.36-.4-.39.47-.47.79.78c.16.16.16.31,0,.43L141.84,144a.32.32,0,0,1-.43,0l-.79-.79Zm2.87-.75,2.64,2.38-1.69,1.7L142,143.88l1.45-1.46" transform="translate(0 1.18)"/><path id="pt-a-5" data-name="pt-a" class="cls-9" d="M142.63,145.68,144,147l-1.56,1.58-1.34-1.33Z" transform="translate(0 1.18)"/><path id="pt-a-6" data-name="pt-a" class="cls-9" d="M146.78,141.5l1.34,1.33-1.56,1.58-1.34-1.33Z" transform="translate(0 1.18)"/><path id="pt-b-5" data-name="pt-b" class="cls-9" d="M139.77,146.52l.47-.48.39.39.35-.35-.39-.39.47-.47.39.39.36-.36-.4-.39.47-.47.79.78c.16.16.16.31,0,.43L141,147.3a.33.33,0,0,1-.47,0h0l-.79-.78Z" transform="translate(0 1.18)"/><path id="pt-b-6" data-name="pt-b" class="cls-9" d="M143.92,142.34l.47-.48.39.4.35-.36-.39-.39.47-.47.39.39.36-.36-.4-.39.47-.47.79.78c.16.16.16.32,0,.43l-1.68,1.7a.33.33,0,0,1-.47,0h0l-.79-.78Z" transform="translate(0 1.18)"/><path d="M143.37,144.15a.25.25,0,0,1,.36-.36l.63.63-.36.35-.63-.62" transform="translate(0 1.18)"/><path id="pt-c-5" data-name="pt-c" d="M142.17,147.1a.22.22,0,1,1,.31-.32l.47.47-.31.32-.47-.47" transform="translate(0 1.18)"/><path id="pt-c-6" data-name="pt-c" d="M146.32,142.92a.22.22,0,1,1,.31-.32l.47.47-.31.32-.47-.47" transform="translate(0 1.18)"/></g></g><g id="pt-d-4" data-name="pt-d"><path class="cls-7" d="M162.73,98.47c.05-3,2.22-3.77,2.22-3.77a3.77,3.77,0,0,1,2.39,3.83h-4.61" transform="translate(0 1.18)"/><path class="cls-8" d="M160.84,94.75l-.39,3.5h2.33c0-2.89,2.23-3.33,2.23-3.33a3.33,3.33,0,0,1,2.28,3.33h2.33l-.45-3.55h-8.33Zm-.56,3.56h9.45a.36.36,0,0,1,.33.39c0,.27-.16.44-.33.44h-9.45c-.16,0-.33-.17-.33-.44a.38.38,0,0,1,.39-.39Z" transform="translate(0 1.18)"/><path class="cls-8" d="M163.73,98.25A2.37,2.37,0,0,1,165,95.92a2.45,2.45,0,0,1,1.28,2.33h-2.56m-3.22-5h9.05c.17,0,.34.22.34.45a.36.36,0,0,1-.34.33h-9.05a.38.38,0,0,1-.34-.39.36.36,0,0,1,.34-.33Zm.22.84h8.56a.39.39,0,0,1,0,.77h-8.62c-.22,0-.33-.16-.33-.39s.11-.38.33-.38Zm2.78-5.89h.66v.44h.5V88.2h.73v.5h.5v-.56h.66v1.11c0,.22-.11.34-.27.34h-2.45a.31.31,0,0,1-.33-.28V88.2Zm2.55,1.5.17,3.55h-2.39l.17-3.61h2.05" transform="translate(0 1.18)"/><path id="pt-a-7" data-name="pt-a" class="cls-8" d="M163.17,91.36v1.89H161V91.36Z" transform="translate(0 1.18)"/><path id="pt-a-8" data-name="pt-a" class="cls-8" d="M169.06,91.36v1.89h-2.22V91.36Z" transform="translate(0 1.18)"/><path id="pt-b-7" data-name="pt-b" class="cls-8" d="M160.56,89.92h.67v.55h.5v-.55h.67v.55h.5v-.55h.66V91c0,.22-.11.33-.28.33H160.9a.34.34,0,0,1-.34-.33h0V89.92Z" transform="translate(0 1.18)"/><path id="pt-b-8" data-name="pt-b" class="cls-8" d="M166.45,89.92h.67v.55h.5v-.55h.67v.55h.5v-.55h.66V91c0,.22-.11.33-.28.33h-2.38a.34.34,0,0,1-.34-.33h0V89.92Z" transform="translate(0 1.18)"/><path d="M164.79,90.81a.25.25,0,1,1,.5,0v.89h-.5v-.89" transform="translate(0 1.18)"/><path id="pt-c-7" data-name="pt-c" d="M161.84,92a.22.22,0,1,1,.44,0v.67h-.44V92" transform="translate(0 1.18)"/><path id="pt-c-8" data-name="pt-c" d="M167.73,92a.22.22,0,1,1,.44,0v.67h-.44V92" transform="translate(0 1.18)"/></g><g id="pt-e-2" data-name="pt-e"><g id="pt-d-5" data-name="pt-d"><path class="cls-7" d="M192.56,98.47c-.05-3-2.22-3.77-2.22-3.77A3.78,3.78,0,0,0,188,98.53h4.61" transform="translate(0 1.18)"/><path class="cls-8" d="M194.45,94.75l.39,3.5h-2.33c0-2.89-2.22-3.33-2.22-3.33A3.3,3.3,0,0,0,188,98.25h-2.34l.45-3.55h8.33Zm.56,3.56h-9.45a.37.37,0,0,0-.33.39c0,.27.17.44.33.44H195c.17,0,.33-.17.33-.44a.37.37,0,0,0-.39-.39Z" transform="translate(0 1.18)"/><path class="cls-8" d="M191.56,98.25a2.37,2.37,0,0,0-1.27-2.33A2.45,2.45,0,0,0,189,98.25h2.55m3.23-5h-9.06c-.17,0-.33.22-.33.45a.35.35,0,0,0,.33.33h9.06a.38.38,0,0,0,.33-.39.35.35,0,0,0-.33-.33Zm-.23.84H186a.39.39,0,0,0,0,.77h8.61c.22,0,.33-.16.33-.39s-.11-.38-.33-.38Zm-2.77-5.89h-.67v.44h-.5V88.2h-.72v.5h-.5v-.56h-.67v1.11c0,.22.11.34.28.34h2.44a.32.32,0,0,0,.34-.28V88.2Zm-2.56,1.5-.17,3.55h2.39l-.16-3.61h-2.06" transform="translate(0 1.18)"/><path id="pt-a-9" data-name="pt-a" class="cls-8" d="M192.12,91.36v1.89h2.22V91.36Z" transform="translate(0 1.18)"/><path id="pt-a-10" data-name="pt-a" class="cls-8" d="M186.23,91.36v1.89h2.22V91.36Z" transform="translate(0 1.18)"/><path id="pt-b-9" data-name="pt-b" class="cls-8" d="M194.73,89.92h-.67v.55h-.5v-.55h-.66v.55h-.5v-.55h-.67V91c0,.22.11.33.28.33h2.39a.33.33,0,0,0,.33-.33h0V89.92Z" transform="translate(0 1.18)"/><path id="pt-b-10" data-name="pt-b" class="cls-8" d="M188.84,89.92h-.66v.55h-.51v-.55H187v.55h-.5v-.55h-.67V91c0,.22.11.33.28.33h2.39a.33.33,0,0,0,.33-.33h0V89.92Z" transform="translate(0 1.18)"/><path d="M190.51,90.81a.25.25,0,1,0-.5,0v.89h.5v-.89" transform="translate(0 1.18)"/><path id="pt-c-9" data-name="pt-c" d="M193.45,92a.22.22,0,1,0-.44,0v.67h.44V92" transform="translate(0 1.18)"/><path id="pt-c-10" data-name="pt-c" d="M187.56,92a.22.22,0,1,0-.44,0v.67h.44V92" transform="translate(0 1.18)"/></g><g id="pt-d-6" data-name="pt-d"><path class="cls-7" d="M192.56,124.2c-.05-3.06-2.22-3.78-2.22-3.78a3.79,3.79,0,0,0-2.39,3.83h4.61" transform="translate(0 1.18)"/><path class="cls-8" d="M194.45,120.48l.39,3.5h-2.33c0-2.89-2.22-3.34-2.22-3.34A3.31,3.31,0,0,0,188,124h-2.34l.45-3.56h8.33ZM195,124h-9.45a.38.38,0,0,0-.33.39c0,.28.17.44.33.44H195c.17,0,.33-.16.33-.44A.38.38,0,0,0,195,124Z" transform="translate(0 1.18)"/><path class="cls-8" d="M191.56,124a2.38,2.38,0,0,0-1.27-2.34A2.47,2.47,0,0,0,189,124h2.55m3.23-5h-9.06c-.17,0-.33.22-.33.44a.35.35,0,0,0,.33.33h9.06a.37.37,0,0,0,.33-.39.36.36,0,0,0-.33-.33Zm-.23.83H186a.39.39,0,0,0,0,.78h8.61c.22,0,.33-.17.33-.39s-.11-.39-.33-.39Zm-2.77-5.89h-.67v.44h-.5v-.44h-.72v.5h-.5v-.56h-.67V115c0,.22.11.33.28.33h2.44a.31.31,0,0,0,.34-.28v-1.11Zm-2.56,1.5-.17,3.56h2.39l-.16-3.62h-2.06" transform="translate(0 1.18)"/><path id="pt-a-11" data-name="pt-a" class="cls-8" d="M192.12,117.09V119h2.22v-1.89Z" transform="translate(0 1.18)"/><path id="pt-a-12" data-name="pt-a" class="cls-8" d="M186.23,117.09V119h2.22v-1.89Z" transform="translate(0 1.18)"/><path id="pt-b-11" data-name="pt-b" class="cls-8" d="M194.73,115.64h-.67v.56h-.5v-.56h-.66v.56h-.5v-.56h-.67v1.11c0,.23.11.34.28.34h2.39a.34.34,0,0,0,.33-.34h0v-1.11Z" transform="translate(0 1.18)"/><path id="pt-b-12" data-name="pt-b" class="cls-8" d="M188.84,115.64h-.66v.56h-.51v-.56H187v.56h-.5v-.56h-.67v1.11c0,.23.11.34.28.34h2.39a.34.34,0,0,0,.33-.34h0v-1.11Z" transform="translate(0 1.18)"/><path d="M190.51,116.53a.25.25,0,0,0-.5,0v.89h.5v-.89" transform="translate(0 1.18)"/><path id="pt-c-11" data-name="pt-c" d="M193.45,117.75a.22.22,0,1,0-.44,0v.67h.44v-.67" transform="translate(0 1.18)"/><path id="pt-c-12" data-name="pt-c" d="M187.56,117.75a.22.22,0,1,0-.44,0v.67h.44v-.67" transform="translate(0 1.18)"/></g><g id="pt-d-7" data-name="pt-d"><path class="cls-7" d="M182.54,151c2.13-2.2,1.11-4.24,1.11-4.24a3.78,3.78,0,0,0-4.4,1l3.25,3.28" transform="translate(0 1.18)"/><path class="cls-9" d="M186.51,149.72l-2.21,2.75-1.64-1.66c2.05-2,.8-3.92.8-3.92a3.31,3.31,0,0,0-4,.73L177.84,146l2.84-2.19,5.87,5.92Zm-2.13,2.9-6.66-6.7a.37.37,0,0,0-.51,0c-.19.2-.2.43-.08.55l6.66,6.7a.39.39,0,0,0,.55-.07.38.38,0,0,0,0-.55Z" transform="translate(0 1.18)"/><path class="cls-9" d="M182,150.14a2.38,2.38,0,0,0,.76-2.55,2.48,2.48,0,0,0-2.56.74l1.8,1.81m5.82-1.24-6.38-6.42a.43.43,0,0,0-.55.08.35.35,0,0,0,0,.47l6.38,6.42a.37.37,0,0,0,.51,0,.37.37,0,0,0,0-.48Zm-.75.43-6-6.07a.39.39,0,0,0-.55.55l6.07,6.11a.39.39,0,0,0,.55-.55Zm2.22-6.12-.47-.47-.31.31-.35-.35.31-.31-.51-.52-.35.36-.36-.36.4-.39-.47-.47-.79.78c-.16.16-.16.31,0,.43l1.72,1.74a.33.33,0,0,0,.43,0l.79-.79Zm-2.86-.75-2.64,2.38,1.68,1.7,2.45-2.66-1.45-1.46" transform="translate(0 1.18)"/><path id="pt-a-13" data-name="pt-a" class="cls-9" d="M187.27,145.68,185.93,147l1.57,1.58,1.34-1.33Z" transform="translate(0 1.18)"/><path id="pt-a-14" data-name="pt-a" class="cls-9" d="M183.12,141.5l-1.34,1.33,1.57,1.58,1.34-1.33Z" transform="translate(0 1.18)"/><path id="pt-b-13" data-name="pt-b" class="cls-9" d="M190.14,146.52l-.47-.48-.4.39-.35-.35.39-.39-.47-.47-.39.39-.35-.36.39-.39-.47-.47-.79.78c-.15.16-.16.31,0,.43l1.69,1.7a.33.33,0,0,0,.47,0h0l.79-.78Z" transform="translate(0 1.18)"/><path id="pt-b-14" data-name="pt-b" class="cls-9" d="M186,142.34l-.47-.48-.4.4-.35-.36.39-.39-.47-.47-.39.39-.35-.36.39-.39-.47-.47-.79.78c-.15.16-.15.32,0,.43l1.69,1.7a.33.33,0,0,0,.47,0h0l.79-.78Z" transform="translate(0 1.18)"/><path d="M186.53,144.15a.25.25,0,0,0-.35-.36l-.63.63.35.35.63-.62" transform="translate(0 1.18)"/><path id="pt-c-13" data-name="pt-c" d="M187.74,147.1a.23.23,0,1,0-.32-.32l-.47.47.31.32.48-.47" transform="translate(0 1.18)"/><path id="pt-c-14" data-name="pt-c" d="M183.59,142.92a.23.23,0,1,0-.32-.32l-.47.47.31.32.48-.47" transform="translate(0 1.18)"/></g></g><g id="pt-f"><path class="cls-10" d="M160.9,125.14a4.58,4.58,0,0,0,1.22,3.17,4,4,0,0,0,2.94,1.33,4.06,4.06,0,0,0,2.95-1.33,4.63,4.63,0,0,0,1.22-3.17v-6H160.9v6" transform="translate(0 1.18)"/><circle class="cls-11" cx="162.84" cy="122.6" r="0.83"/><circle class="cls-11" cx="167.45" cy="122.6" r="0.83"/><circle class="cls-11" cx="165.12" cy="124.82" r="0.83"/><circle class="cls-11" cx="162.84" cy="127.15" r="0.83"/><circle class="cls-11" cx="167.45" cy="127.15" r="0.83"/></g><g id="pt-f-2" data-name="pt-f"><path class="cls-10" d="M160.9,110.7a4.57,4.57,0,0,0,1.22,3.16,4,4,0,0,0,2.94,1.34,4.07,4.07,0,0,0,2.95-1.34,4.62,4.62,0,0,0,1.22-3.16v-6H160.9v6" transform="translate(0 1.18)"/><circle class="cls-11" cx="162.84" cy="108.15" r="0.83"/><circle class="cls-11" cx="167.45" cy="108.15" r="0.83"/><circle class="cls-11" cx="165.12" cy="110.37" r="0.83"/><circle class="cls-11" cx="162.84" cy="112.71" r="0.83"/><circle class="cls-11" cx="167.45" cy="112.71" r="0.83"/></g><g id="pt-f-3" data-name="pt-f"><path class="cls-10" d="M149.34,125.14a4.63,4.63,0,0,0,1.22,3.17,4,4,0,0,0,2.95,1.33,4.06,4.06,0,0,0,2.94-1.33,4.58,4.58,0,0,0,1.22-3.17v-6h-8.33v6" transform="translate(0 1.18)"/><circle class="cls-11" cx="151.28" cy="122.6" r="0.83"/><circle class="cls-11" cx="155.9" cy="122.6" r="0.83"/><circle class="cls-11" cx="153.56" cy="124.82" r="0.83"/><circle class="cls-11" cx="151.28" cy="127.15" r="0.83"/><circle class="cls-11" cx="155.9" cy="127.15" r="0.83"/></g><g id="pt-f-4" data-name="pt-f"><path class="cls-10" d="M172.45,125.14a4.63,4.63,0,0,0,1.22,3.17,4,4,0,0,0,3,1.33,4,4,0,0,0,2.94-1.33,4.59,4.59,0,0,0,1.23-3.17v-6h-8.34v6" transform="translate(0 1.18)"/><circle class="cls-11" cx="174.4" cy="122.6" r="0.83"/><circle class="cls-11" cx="179.01" cy="122.6" r="0.83"/><circle class="cls-11" cx="176.67" cy="124.82" r="0.83"/><circle class="cls-11" cx="174.4" cy="127.15" r="0.83"/><circle class="cls-11" cx="179.01" cy="127.15" r="0.83"/></g><g id="pt-f-5" data-name="pt-f"><path class="cls-10" d="M160.9,139.48a4.57,4.57,0,0,0,1.22,3.16,4,4,0,0,0,2.94,1.34,4.07,4.07,0,0,0,2.95-1.34,4.62,4.62,0,0,0,1.22-3.16v-6H160.9v6" transform="translate(0 1.18)"/><circle class="cls-11" cx="162.84" cy="136.93" r="0.83"/><circle class="cls-11" cx="167.45" cy="136.93" r="0.83"/><circle class="cls-11" cx="165.12" cy="139.15" r="0.83"/><circle class="cls-11" cx="162.84" cy="141.48" r="0.83"/><circle class="cls-11" cx="167.45" cy="141.48" r="0.83"/></g></g></svg>