<svg width="179" height="40" viewBox="0 0 179 40" fill="none" xmlns="http://www.w3.org/2000/svg">
<path d="M0 0.549617H6.0458V33.5267H15.9939V39.0229H0V0.549617Z" fill="#14161B"/>
<path d="M24.3893 0.549617H40.8779V6.0458H30.4351V16.2137H38.7343V21.7099H30.4351V33.5267H40.8779V39.0229H24.3893V0.549617Z" fill="#14161B"/>
<path d="M58.4261 39.5725C55.4948 39.5725 53.2597 38.7481 51.7208 37.0992C50.1819 35.4137 49.4124 33.0137 49.4124 29.8992V9.67328C49.4124 6.55878 50.1819 4.1771 51.7208 2.52824C53.2597 0.842748 55.4948 0 58.4261 0C61.3574 0 63.5926 0.842748 65.1315 2.52824C66.6704 4.1771 67.4399 6.55878 67.4399 9.67328V12.971H61.7239V9.28855C61.7239 6.76031 60.6796 5.49618 58.591 5.49618C56.5025 5.49618 55.4582 6.76031 55.4582 9.28855V30.3389C55.4582 32.8305 56.5025 34.0763 58.591 34.0763C60.6796 34.0763 61.7239 32.8305 61.7239 30.3389V22.8092H58.701V17.313H67.4399V29.8992C67.4399 33.0137 66.6704 35.4137 65.1315 37.0992C63.5926 38.7481 61.3574 39.5725 58.4261 39.5725Z" fill="#14161B"/>
<path d="M76.8177 0.549617H93.3063V6.0458H82.8635V16.2137H91.1628V21.7099H82.8635V33.5267H93.3063V39.0229H76.8177V0.549617Z" fill="#14161B"/>
<path d="M102.281 0.549617H109.865L115.746 23.5786H115.856V0.549617H121.242V39.0229H115.032L107.777 10.9374H107.667V39.0229H102.281V0.549617Z" fill="#14161B"/>
<path d="M131.232 0.549617H140.466C143.47 0.549617 145.724 1.35573 147.226 2.96794C148.728 4.58015 149.479 6.94351 149.479 10.058V29.5145C149.479 32.629 148.728 34.9924 147.226 36.6046C145.724 38.2168 143.47 39.0229 140.466 39.0229H131.232V0.549617ZM140.356 33.5267C141.345 33.5267 142.096 33.2336 142.609 32.6473C143.159 32.0611 143.434 31.1084 143.434 29.7893V9.78321C143.434 8.46412 143.159 7.51145 142.609 6.92519C142.096 6.33893 141.345 6.0458 140.356 6.0458H137.278V33.5267H140.356Z" fill="#14161B"/>
<path d="M166.916 39.5725C163.985 39.5725 161.768 38.7481 160.266 37.0992C158.763 35.4137 158.012 33.0137 158.012 29.8992V27.7008H163.728V30.3389C163.728 32.8305 164.773 34.0763 166.861 34.0763C167.887 34.0763 168.657 33.7832 169.17 33.1969C169.719 32.574 169.994 31.5847 169.994 30.229C169.994 28.6168 169.628 27.2061 168.895 25.9969C168.162 24.7511 166.806 23.2672 164.828 21.545C162.336 19.3466 160.595 17.3679 159.606 15.6092C158.617 13.8137 158.122 11.7985 158.122 9.56336C158.122 6.52214 158.892 4.1771 160.431 2.52824C161.97 0.842748 164.205 0 167.136 0C170.031 0 172.211 0.842748 173.676 2.52824C175.179 4.1771 175.93 6.55878 175.93 9.67328V11.2672H170.214V9.28855C170.214 7.96947 169.957 7.01679 169.444 6.43053C168.931 5.80763 168.18 5.49618 167.191 5.49618C165.176 5.49618 164.168 6.72366 164.168 9.17862C164.168 10.571 164.534 11.8718 165.267 13.0809C166.037 14.2901 167.411 15.7557 169.389 17.4779C171.918 19.6763 173.658 21.6733 174.611 23.4687C175.563 25.2641 176.04 27.371 176.04 29.7893C176.04 32.9405 175.252 35.3588 173.676 37.0443C172.137 38.7298 169.884 39.5725 166.916 39.5725Z" fill="#14161B"/>
<path d="M154.083 29.252H178.999V40H154.083V29.252Z" fill="#F8F8F8"/>
<path d="M160.289 39.1404C159.672 39.1404 159.199 38.9645 158.87 38.6127C158.55 38.261 158.39 37.7646 158.39 37.1236V32.715C158.39 32.074 158.55 31.5776 158.87 31.2259C159.199 30.8741 159.672 30.6982 160.289 30.6982C160.907 30.6982 161.376 30.8741 161.696 31.2259C162.024 31.5776 162.189 32.074 162.189 32.715V33.5826H160.969V32.6329C160.969 32.1248 160.754 31.8708 160.324 31.8708C159.894 31.8708 159.679 32.1248 159.679 32.6329V37.2174C159.679 37.7177 159.894 37.9679 160.324 37.9679C160.754 37.9679 160.969 37.7177 160.969 37.2174V35.9629H162.189V37.1236C162.189 37.7646 162.024 38.261 161.696 38.6127C161.376 38.9645 160.907 39.1404 160.289 39.1404Z" fill="#14161B"/>
<path d="M163.195 30.8155H164.485V37.8506H166.607V39.0231H163.195V30.8155Z" fill="#14161B"/>
<path d="M169.336 39.1404C168.711 39.1404 168.234 38.9645 167.905 38.6127C167.577 38.2532 167.413 37.7412 167.413 37.0767V30.8155H168.703V37.1705C168.703 37.452 168.757 37.6552 168.867 37.7803C168.984 37.9053 169.148 37.9679 169.359 37.9679C169.57 37.9679 169.731 37.9053 169.84 37.7803C169.957 37.6552 170.016 37.452 170.016 37.1705V30.8155H171.259V37.0767C171.259 37.7412 171.095 38.2532 170.766 38.6127C170.438 38.9645 169.961 39.1404 169.336 39.1404Z" fill="#14161B"/>
<path d="M172.412 30.8155H174.358C175.023 30.8155 175.507 30.9718 175.812 31.2845C176.117 31.5894 176.269 32.0623 176.269 32.7032V33.0316C176.269 33.4537 176.199 33.7976 176.058 34.0634C175.926 34.3291 175.718 34.5207 175.437 34.6379V34.6614C176.078 34.8802 176.398 35.4509 176.398 36.3732V37.0767C176.398 37.7099 176.23 38.1945 175.894 38.5307C175.566 38.859 175.081 39.0231 174.44 39.0231H172.412V30.8155ZM174.206 34.1572C174.464 34.1572 174.655 34.0907 174.78 33.9578C174.913 33.825 174.98 33.6022 174.98 33.2895V32.8322C174.98 32.5352 174.925 32.3202 174.816 32.1873C174.714 32.0545 174.55 31.988 174.323 31.988H173.702V34.1572H174.206ZM174.44 37.8506C174.667 37.8506 174.835 37.792 174.945 37.6747C175.054 37.5497 175.109 37.3386 175.109 37.0416V36.3263C175.109 35.9511 175.042 35.6932 174.909 35.5525C174.784 35.404 174.573 35.3297 174.276 35.3297H173.702V37.8506H174.44Z" fill="#14161B"/>
</svg>
